<mxfile host="app.diagrams.net" agent="Mozilla/5.0 (Windows NT 10.0; Win64; x64) AppleWebKit/537.36 (KHTML, like Gecko) Chrome/129.0.0.0 Safari/537.36" version="24.8.6">
  <diagram name="페이지-1" id="MRYm2grZVrI7pGliOM4l">
    <mxGraphModel dx="1434" dy="746" grid="1" gridSize="10" guides="1" tooltips="1" connect="1" arrows="1" fold="1" page="1" pageScale="1" pageWidth="827" pageHeight="1169" math="0" shadow="0">
      <root>
        <mxCell id="0" />
        <mxCell id="1" parent="0" />
        <mxCell id="olVMCKx7tjJ6u7ViIvjU-2" value="" style="verticalLabelPosition=bottom;html=1;verticalAlign=top;align=center;strokeColor=none;fillColor=#00BEF2;shape=mxgraph.azure.git_repository;" vertex="1" parent="1">
          <mxGeometry x="50" y="180" width="50" height="50" as="geometry" />
        </mxCell>
        <mxCell id="olVMCKx7tjJ6u7ViIvjU-3" value="" style="endArrow=classic;html=1;rounded=0;" edge="1" parent="1">
          <mxGeometry width="50" height="50" relative="1" as="geometry">
            <mxPoint x="120" y="205" as="sourcePoint" />
            <mxPoint x="160" y="204.5" as="targetPoint" />
            <Array as="points">
              <mxPoint x="100" y="205" />
              <mxPoint x="120" y="205" />
            </Array>
          </mxGeometry>
        </mxCell>
        <mxCell id="olVMCKx7tjJ6u7ViIvjU-5" value="" style="verticalLabelPosition=bottom;html=1;verticalAlign=top;align=center;strokeColor=none;fillColor=#00BEF2;shape=mxgraph.azure.github_code;pointerEvents=1;" vertex="1" parent="1">
          <mxGeometry x="160" y="180" width="50" height="50" as="geometry" />
        </mxCell>
        <mxCell id="olVMCKx7tjJ6u7ViIvjU-6" value="" style="endArrow=classic;html=1;rounded=0;" edge="1" parent="1">
          <mxGeometry width="50" height="50" relative="1" as="geometry">
            <mxPoint x="210" y="204.5" as="sourcePoint" />
            <mxPoint x="390" y="205" as="targetPoint" />
          </mxGeometry>
        </mxCell>
        <mxCell id="olVMCKx7tjJ6u7ViIvjU-12" value="Github Repository" style="text;html=1;align=center;verticalAlign=middle;whiteSpace=wrap;rounded=0;" vertex="1" parent="1">
          <mxGeometry x="25" y="230" width="100" height="30" as="geometry" />
        </mxCell>
        <mxCell id="olVMCKx7tjJ6u7ViIvjU-13" value="Github Actions" style="text;html=1;align=center;verticalAlign=middle;whiteSpace=wrap;rounded=0;" vertex="1" parent="1">
          <mxGeometry x="135" y="235" width="100" height="20" as="geometry" />
        </mxCell>
        <mxCell id="olVMCKx7tjJ6u7ViIvjU-14" value="" style="endArrow=none;html=1;rounded=0;" edge="1" parent="1">
          <mxGeometry width="50" height="50" relative="1" as="geometry">
            <mxPoint x="280" y="200" as="sourcePoint" />
            <mxPoint x="280" y="170" as="targetPoint" />
            <Array as="points" />
          </mxGeometry>
        </mxCell>
        <mxCell id="olVMCKx7tjJ6u7ViIvjU-15" value="Next.js&amp;nbsp;&lt;span style=&quot;background-color: initial;&quot;&gt;빌드 결과 산출물&lt;/span&gt;" style="text;html=1;align=center;verticalAlign=middle;whiteSpace=wrap;rounded=0;" vertex="1" parent="1">
          <mxGeometry x="200" y="150" width="160" height="30" as="geometry" />
        </mxCell>
        <mxCell id="olVMCKx7tjJ6u7ViIvjU-93" value="AWS Cloud" style="swimlane;startSize=20;horizontal=1;containerType=tree;" vertex="1" parent="1">
          <mxGeometry x="350" y="150" width="150" height="530" as="geometry" />
        </mxCell>
        <mxCell id="olVMCKx7tjJ6u7ViIvjU-99" value="Amazon S3" style="sketch=0;outlineConnect=0;fontColor=#232F3E;gradientColor=none;strokeColor=#ffffff;fillColor=#232F3E;dashed=0;verticalLabelPosition=middle;verticalAlign=bottom;align=center;html=1;whiteSpace=wrap;fontSize=10;fontStyle=1;spacing=3;shape=mxgraph.aws4.productIcon;prIcon=mxgraph.aws4.s3;" vertex="1" parent="olVMCKx7tjJ6u7ViIvjU-93">
          <mxGeometry x="45" y="30" width="60" height="80" as="geometry" />
        </mxCell>
        <mxCell id="olVMCKx7tjJ6u7ViIvjU-100" value="Amazon Cloudfront" style="sketch=0;outlineConnect=0;fontColor=#232F3E;gradientColor=none;strokeColor=#ffffff;fillColor=#232F3E;dashed=0;verticalLabelPosition=middle;verticalAlign=bottom;align=center;html=1;whiteSpace=wrap;fontSize=10;fontStyle=1;spacing=3;shape=mxgraph.aws4.productIcon;prIcon=mxgraph.aws4.cloudfront;" vertex="1" parent="olVMCKx7tjJ6u7ViIvjU-93">
          <mxGeometry x="43.75" y="150" width="60" height="90" as="geometry" />
        </mxCell>
        <mxCell id="olVMCKx7tjJ6u7ViIvjU-117" value="Amazon Route 53" style="sketch=0;outlineConnect=0;fontColor=#232F3E;gradientColor=none;strokeColor=#ffffff;fillColor=#232F3E;dashed=0;verticalLabelPosition=middle;verticalAlign=bottom;align=center;html=1;whiteSpace=wrap;fontSize=10;fontStyle=1;spacing=3;shape=mxgraph.aws4.productIcon;prIcon=mxgraph.aws4.route_53;" vertex="1" parent="olVMCKx7tjJ6u7ViIvjU-93">
          <mxGeometry x="43.75" y="290" width="62.5" height="90" as="geometry" />
        </mxCell>
        <mxCell id="olVMCKx7tjJ6u7ViIvjU-118" value="AWS Certificate Manager" style="sketch=0;outlineConnect=0;fontColor=#232F3E;gradientColor=none;strokeColor=#ffffff;fillColor=#232F3E;dashed=0;verticalLabelPosition=middle;verticalAlign=bottom;align=center;html=1;whiteSpace=wrap;fontSize=10;fontStyle=1;spacing=3;shape=mxgraph.aws4.productIcon;prIcon=mxgraph.aws4.certificate_manager_3;" vertex="1" parent="olVMCKx7tjJ6u7ViIvjU-93">
          <mxGeometry x="43.75" y="420" width="60" height="100" as="geometry" />
        </mxCell>
        <mxCell id="olVMCKx7tjJ6u7ViIvjU-119" value="" style="endArrow=classic;startArrow=classic;html=1;rounded=0;" edge="1" parent="olVMCKx7tjJ6u7ViIvjU-93">
          <mxGeometry width="50" height="50" relative="1" as="geometry">
            <mxPoint x="74.58000000000004" y="150" as="sourcePoint" />
            <mxPoint x="74.58000000000004" y="110" as="targetPoint" />
          </mxGeometry>
        </mxCell>
        <mxCell id="olVMCKx7tjJ6u7ViIvjU-120" value="" style="endArrow=classic;startArrow=classic;html=1;rounded=0;" edge="1" parent="olVMCKx7tjJ6u7ViIvjU-93">
          <mxGeometry width="50" height="50" relative="1" as="geometry">
            <mxPoint x="74.58000000000004" y="290" as="sourcePoint" />
            <mxPoint x="74.58000000000004" y="250" as="targetPoint" />
          </mxGeometry>
        </mxCell>
        <mxCell id="olVMCKx7tjJ6u7ViIvjU-124" value="" style="endArrow=classic;html=1;rounded=0;" edge="1" parent="olVMCKx7tjJ6u7ViIvjU-93">
          <mxGeometry width="50" height="50" relative="1" as="geometry">
            <mxPoint x="74.58000000000004" y="420" as="sourcePoint" />
            <mxPoint x="74.58000000000004" y="380" as="targetPoint" />
          </mxGeometry>
        </mxCell>
        <mxCell id="olVMCKx7tjJ6u7ViIvjU-127" value="" style="endArrow=classic;startArrow=classic;html=1;rounded=0;" edge="1" parent="olVMCKx7tjJ6u7ViIvjU-93">
          <mxGeometry width="50" height="50" relative="1" as="geometry">
            <mxPoint x="110" y="320" as="sourcePoint" />
            <mxPoint x="190" y="320" as="targetPoint" />
          </mxGeometry>
        </mxCell>
        <mxCell id="olVMCKx7tjJ6u7ViIvjU-125" value="" style="image;aspect=fixed;perimeter=ellipsePerimeter;html=1;align=center;shadow=0;dashed=0;spacingTop=3;image=img/lib/active_directory/internet_globe.svg;" vertex="1" parent="1">
          <mxGeometry x="550" y="440" width="50" height="50" as="geometry" />
        </mxCell>
        <mxCell id="olVMCKx7tjJ6u7ViIvjU-126" value="Internet" style="text;html=1;align=center;verticalAlign=middle;whiteSpace=wrap;rounded=0;" vertex="1" parent="1">
          <mxGeometry x="545" y="490" width="60" height="30" as="geometry" />
        </mxCell>
      </root>
    </mxGraphModel>
  </diagram>
</mxfile>
